pedal_clip_forces.mot
version=1
nRows=231
nColumns=4
inDegrees=yes
endheader
time	PedalClip_calcn_r_Fx	PedalClip_calcn_r_Fy	PedalClip_calcn_r_Fz
0	7.44990323052001	13.9305095348418	0
0.00111369	7.28653428173274	14.2129533671095	0
0.00550713	7.12263896972121	14.4917619895107	0
0.00990056	6.95821857953985	14.7669517604685	0
0.014294	6.79327444079176	15.0385397880807	0
0.01756935	6.62780792979366	15.3065439771929	0
0.0215395	6.46182047191015	15.5709830802599	0
0.02448431	6.29531354407497	15.8318767523512	0
0.02807759	6.12828892096351	16.0892456106828	0
0.03071043	5.96074934505025	16.3431127435454	0
0.03393954	5.79269766368273	16.5935087738631	0
0.0363916	5.62413664198954	16.8404699187399	0
0.03846821	5.45506925411148	17.0840348709384	0
0.04106008	5.28549775083642	17.3242454181063	0
0.04262837	5.11542386342129	17.5611438078082	0
0.04497036	4.94484927975247	17.7947706672659	0
0.0462777	4.77377549046938	18.0251648014837	0
0.04809258	4.60220400580009	18.2523634384932	0
0.04942068	4.4301360347886	18.4764021375348	0
0.05137655	4.25757268088058	18.6973150166976	0
0.05251902	4.08451485509672	18.9151347028435	0
0.05366149	3.91096361750329	19.1298927483341	0
0.05444328	3.73691988777564	19.3416195150742	0
0.05532816	3.56238419466109	19.5503435444148	0
0.05716795	3.38735676546771	19.7560913916875	0
0.05907211	3.21183746852591	19.9588874719987	0
0.06007231	3.03582570372929	20.1587539590447	0
0.0610725	2.85932100088457	20.3557113480291	0
0.06243912	2.68232280450501	20.5497795139293	0
0.06329345	2.50483030927768	20.7409759564229	0
0.06414777	2.32684286597321	20.9293151793718	0
0.06441118	2.14835959259626	21.1148083510848	0
0.06572822	1.96937995640754	21.2974623661897	0
0.06585992	1.78990390246167	21.4772793354752	0
0.06602019	1.6099316196066	21.654256749677	0
0.06682153	1.42946354971104	21.8283860548675	0
0.06774569	1.24850013232315	21.9996515225742	0
0.06866984	1.0670417810901	22.1680294700785	0
0.06913192	0.88508857902728	22.333488502277	0
0.07064966	0.702640539614255	22.4959866724592	0
0.07132904	0.519697825787316	22.6554687459719	0
0.07200841	0.336261413667527	22.8118636610653	0
0.07251198	0.15233220544766	22.9650838249238	0
0.07313078	-0.0320886877889966	23.115019640933	0
0.07398118	-0.216999191088917	23.2615330503337	0
0.07483158	-0.4023960636729	23.4044521175663	0
0.07513037	-0.588275408640943	23.5435687781888	0
0.07589523	-0.774631010634914	23.6786370009631	0
0.07657396	-0.961452923161689	23.8093876573524	0
0.07725268	-1.14872523571905	23.9355853467266	0
0.07764691	-1.33712926935711	24.0590921632407	0
0.0781253	-1.5259226515738	24.1811183345777	0
0.07897373	-1.71516126515966	24.3018858686926	0
0.07982215	-1.90490607776745	24.4216708589228	0
0.08023336	-2.09519735667734	24.5408442739421	0
0.08079942	-2.28601686356801	24.6599018434038	0
0.08144864	-2.47730655508561	24.779374940173	0
0.08209786	-2.66899480420333	24.899740566189	0
0.08240486	-2.86102398422453	25.0212942332082	0
0.08282695	-3.05337413543189	25.1440390423314	0
0.08357869	-3.24605589006486	25.2678554001666	0
0.08433042	-3.43906412621	25.3925093348245	0
0.08468236	-3.6323406312647	25.5177545204006	0
0.08512931	-3.82583892435352	25.6434246317808	0
0.08575859	-4.01950739582558	25.7694435060702	0
0.08638786	-4.21324654321729	25.8958143583652	0
0.08661378	-4.40694270493342	26.0226062159265	0
0.08698677	-4.60049617704547	26.1498783336744	0
0.08771749	-4.79382845711041	26.2776410746774	0
0.08844821	-4.98686758221913	26.405855448124	0
0.08900288	-5.1795174199315	26.5344432618255	0
0.08967086	-5.37164683273647	26.6633335487408	0
0.09033885	-5.56316148836302	26.7925297305406	0
0.09065548	-5.75401671572706	26.922033286085	0
0.09111011	-5.94416341446756	27.0517877238647	0
0.09161704	-6.13352722550176	27.1816808019668	0
0.09212396	-6.32202093625547	27.3115805975095	0
0.09281038	-6.50955694626684	27.4413905858395	0
0.09335663	-6.69610505441743	27.571115856859	0
0.09343608	-6.88166357115108	27.7007753386552	0
0.0936167	-7.06621522992878	27.8303510266967	0
0.09416321	-7.24974587472001	27.9598372130015	0
0.09444337	-7.43225799966463	28.0892794826463	0
0.09491018	-7.61375962663823	28.2187530130603	0
0.09536811	-7.79429124745227	28.348316319245	0
0.09582603	-7.97385969297176	28.4779653195828	0
0.09594731	-8.15242698202298	28.6076589156441	0
0.09623493	-8.3299426358133	28.7373525620248	0
0.09706959	-8.50638810542498	28.8670465419121	0
0.09718759	-8.68180108004993	28.9968040548276	0
0.09745834	-8.85622591783614	29.1266765753248	0
0.09787741	-9.02969853823506	29.2566624147914	0
0.09832791	-9.20231043428584	29.3867654641542	0
0.09888837	-9.37416466241525	29.5169868709521	0
0.09921791	-9.54534811091837	29.6473280873608	0
0.09966873	-9.71593853835016	29.7778477144828	0
0.10011954	-9.88601377163529	29.9086734296911	0
0.10016462	-10.0556264675118	30.0399366689705	0
0.10032296	-10.2248065891958	30.1717142198694	0
0.10058287	-10.3935668374651	30.3040355434011	0
0.10087376	-10.5619180728475	30.4369511992741	0
0.1010192	-10.7299007182745	30.5705697045496	0
0.10136557	-10.8975905010402	30.7050242668968	0
0.10178861	-11.0650915546661	30.8404329618075	0
0.10214825	-11.2324806855412	30.9768917614938	0
0.10223599	-11.3998243393439	31.1144591668384	0
0.10237435	-11.5671974269481	31.253155095525	0
0.10288456	-11.7346931360625	31.3930109407832	0
0.10310465	-11.902398140892	31.5341217785272	0
0.10346196	-12.0704235699866	31.6765927769706	0
0.1038577	-12.2388883531706	31.8204666362889	0
0.10425345	-12.4079158911988	31.9657241891974	0
0.10456251	-12.5775698957717	32.1123395503711	0
0.10524605	-12.7478803728675	32.2603028042594	0
0.1053144	-12.9188806008737	32.4096265874916	0
0.10551872	-13.0906424435151	32.5603227384528	0
0.10612152	-13.2631858189316	32.712392505502	0
0.10635258	-13.4365039306178	32.8658051494407	0
0.10671138	-13.6105686890095	33.0204768260873	0
0.10705749	-13.785306441242	33.1762888104078	0
0.1071749	-13.9605854757968	33.3331838883837	0
0.10746802	-14.1363191022298	33.4911564055801	0
0.10777546	-14.3124724198253	33.6501796323029	0
0.10792918	-14.4890429688312	33.8102320661139	0
0.10852992	-14.6660236204538	33.9712598693683	0
0.10895011	-14.8433592859413	34.1331483028063	0
0.10904786	-15.0209613993474	34.295773288519	0
0.10930833	-15.1987522327875	34.4590908388474	0
0.10966456	-15.3767039461319	34.6230618477954	0
0.10994463	-15.5547903538666	34.7875548857144	0
0.11030151	-15.7329594592874	34.9523948282095	0
0.11039887	-15.9111332375028	35.1174275687448	0
0.11061559	-16.0892694349922	35.2825663735342	0
0.11129587	-16.2673313877953	35.4477222079214	0
0.11138511	-16.4452490858712	35.6127208617729	0
0.11159987	-16.622869671079	35.7772735661691	0
0.1119225	-16.7999749163099	35.9410638795549	0
0.11223175	-16.9763199793456	36.1038368418211	0
0.11254099	-17.1516915441879	36.2654711751136	0
0.11300415	-17.3259303722644	36.4259321418775	0
0.11376807	-17.4989240849322	36.5852167869498	0
0.11392232	-17.670589648826	36.7433386530382	0
0.11413567	-17.8408695612457	36.9003231375113	0
0.11447982	-18.0097310980513	37.0561961834768	0
0.11455503	-18.1771686263342	37.2109726767545	0
0.11468601	-18.3431624563245	37.364654864521	0
0.11518176	-18.5076944309723	37.5171965459196	0
0.11527277	-18.6708278714333	37.6685701969639	0
0.11550643	-18.8326963076667	37.8188033507548	0
0.1158477	-18.9934698332607	37.96804186879	0
0.11591463	-19.1533089211885	38.1164967713863	0
0.11604037	-19.312307834967	38.2643604091288	0
0.11648145	-19.4704980306261	38.4117581682294	0
0.11664381	-19.6278808079308	38.5587457507135	0
0.11686968	-19.7844859364614	38.7053392807861	0
0.1172181	-19.9404116700731	38.8516262954936	0
0.1172693	-20.0957950153387	38.9977375601879	0
0.11739866	-20.2507485858383	39.143838459177	0
0.1177506	-20.4053037386367	39.2901091071467	0
0.11787585	-20.55945335755	39.4367184974676	0
0.11812103	-20.7132161426404	39.5838237388932	0
0.1184825	-20.8667130360116	39.7316026928202	0
0.11851865	-21.0201006305612	39.8802549495435	0
0.11865562	-21.1735511792522	40.0299751292426	0
0.11892444	-21.3272306026871	40.1809016634024	0
0.11901818	-21.4812948275607	40.3331407548387	0
0.11923378	-21.6358776357973	40.4868002634645	0
0.1195654	-21.79109673785	40.6419977877375	0
0.1196109	-21.9470643208768	40.7988231317746	0
0.11973638	-22.1039426742731	40.9573827386893	0
0.1200407	-22.2619119119181	41.117762306867	0
0.12016095	-22.4210754408506	41.2799758422142	0
0.12038823	-22.5814288447918	41.4440082980474	0
0.12080476	-22.7429227598482	41.6098227103145	0
0.12084641	-22.9054968682179	41.7773492401386	0
0.12094673	-23.0691134698869	41.9465313161373	0
0.12114029	-23.2337700274619	42.1173202242931	0
0.12137248	-23.3994668833262	42.2896543552133	0
0.12148857	-23.5661852850893	42.4634870561303	0
0.12195117	-23.7339427313658	42.638783198433	0
0.12199743	-23.9028081877287	42.8154818938537	0
0.12204369	-24.0728851547327	42.9934669966433	0
0.122275	-24.2442267326034	43.17256710343	0
0.12238879	-24.4168415534637	43.3526555809236	0
0.12274382	-24.5907237489516	43.5336666180608	0
0.12295766	-24.7658261364245	43.7155368976161	0
0.12334759	-24.9420841001907	43.8981976993783	0
0.12385993	-25.1194520418539	44.0815899030608	0
0.12399541	-25.2978837329995	44.2656535169238	0
0.12415196	-25.4773129074999	44.4503772278199	0
0.1244924	-25.6576940128651	44.6357945460773	0
0.12473611	-25.8389703073181	44.821948550026	0
0.12516168	-26.0210641996569	45.0088946563052	0
0.12550942	-26.2038880273747	45.1966513227184	0
0.12596447	-26.3873543904213	45.3851967148628	0
0.12623251	-26.5714061166733	45.5745429358186	0
0.12636228	-26.7560385471888	45.76472641003	0
0.12678525	-26.9412663042163	45.9557738876268	0
0.12682755	-27.1270808503336	46.1476603978487	0
0.1269315	-27.3134252263128	46.3402881430328	0
0.12712147	-27.500193965661	46.5334883485313	0
0.12720561	-27.6872711120767	46.7271036227725	0
0.12744145	-27.874564101168	46.9210268220971	0
0.12770675	-28.0619993702309	47.1151925264769	0
0.1277572	-28.2494873178307	47.3095331116123	0
0.12786402	-28.4369147853853	47.5039509686375	0
0.12811397	-28.6241585500516	47.6983220793773	0
0.12819406	-28.8111398062578	47.8925801018219	0
0.12839878	-28.9978620136856	48.0867573005533	0
0.12869589	-29.1843790177816	48.2809529030045	0
0.12874765	-29.3707505157669	48.4752741037404	0
0.12886204	-29.5570140917451	48.6697985474996	0
0.12918609	-29.7431939072374	48.8645838349564	0
0.1293055	-29.9293326444275	49.0597362128206	0
0.12953685	-30.1154996630053	49.2554240476769	0
0.1298506	-30.3017841306729	49.451827199301	0
0.13005161	-30.4882615341551	49.649089808844	0
0.13041994	-30.6749828525223	49.8473067024224	0
0.13054819	-30.8619776201171	50.0465222202324	0
0.13077381	-31.0492778818248	50.2467634052968	0
0.1308483	-31.2369251412281	50.4480776228739	0
0.1310522	-31.4249639714715	50.6505278623322	0
0.13134942	-31.6134178518447	50.8541510207931	0
0.13139801	-31.8022982244624	51.0589647123661	0
0.13151265	-31.9916158859047	51.2649788634716	0
0.1318161	-32.18139369986	51.4721970697667	0
0.13192921	-32.3716530418717	51.6806190890876	0
0.13215441	-32.5624022216016	51.8902625057851	0
0.13242177	-32.7536504393536	52.1011856124367	0
0.13262096	-32.9454148812065	52.313468605484	0
0.13297559	-33.1377352022202	52.5271671271985	0
